<mxfile host="app.diagrams.net" modified="2023-10-12T03:32:20.650Z" agent="Mozilla/5.0 (Windows NT 10.0; Win64; x64) AppleWebKit/537.36 (KHTML, like Gecko) Chrome/117.0.0.0 Safari/537.36" etag="IQLK5OoXkBPy9DqPd0WH" version="22.0.4" type="device">
  <diagram name="Page-1" id="60hsWlKGKK6BvUsn6_c-">
    <mxGraphModel dx="1050" dy="542" grid="1" gridSize="10" guides="1" tooltips="1" connect="1" arrows="1" fold="1" page="1" pageScale="1" pageWidth="850" pageHeight="1100" math="0" shadow="0">
      <root>
        <mxCell id="0" />
        <mxCell id="1" parent="0" />
        <mxCell id="Napzg55pDiGs9bYMl0CJ-1" style="edgeStyle=orthogonalEdgeStyle;rounded=0;orthogonalLoop=1;jettySize=auto;html=1;entryX=0;entryY=0.5;entryDx=0;entryDy=0;endArrow=none;endFill=0;" parent="1" source="Napzg55pDiGs9bYMl0CJ-9" target="Napzg55pDiGs9bYMl0CJ-12" edge="1">
          <mxGeometry relative="1" as="geometry">
            <Array as="points">
              <mxPoint x="530" y="220" />
              <mxPoint x="530" y="220" />
            </Array>
          </mxGeometry>
        </mxCell>
        <mxCell id="Napzg55pDiGs9bYMl0CJ-23" value="Deposits &amp;amp; Wealth" style="edgeLabel;html=1;align=center;verticalAlign=middle;resizable=0;points=[];" parent="Napzg55pDiGs9bYMl0CJ-1" vertex="1" connectable="0">
          <mxGeometry x="0.0773" y="2" relative="1" as="geometry">
            <mxPoint x="-1" y="2" as="offset" />
          </mxGeometry>
        </mxCell>
        <mxCell id="Napzg55pDiGs9bYMl0CJ-5" style="edgeStyle=orthogonalEdgeStyle;rounded=0;orthogonalLoop=1;jettySize=auto;html=1;entryX=0.5;entryY=1;entryDx=0;entryDy=0;endArrow=none;endFill=0;startArrow=classic;startFill=1;" parent="1" source="Napzg55pDiGs9bYMl0CJ-9" target="Napzg55pDiGs9bYMl0CJ-10" edge="1">
          <mxGeometry relative="1" as="geometry" />
        </mxCell>
        <mxCell id="Napzg55pDiGs9bYMl0CJ-6" value="Pensions &amp;amp; Wealth" style="edgeLabel;html=1;align=center;verticalAlign=middle;resizable=0;points=[];" parent="Napzg55pDiGs9bYMl0CJ-5" vertex="1" connectable="0">
          <mxGeometry x="0.2057" y="-1" relative="1" as="geometry">
            <mxPoint as="offset" />
          </mxGeometry>
        </mxCell>
        <mxCell id="Napzg55pDiGs9bYMl0CJ-7" style="edgeStyle=orthogonalEdgeStyle;rounded=0;orthogonalLoop=1;jettySize=auto;html=1;endArrow=none;endFill=0;exitX=0;exitY=0.5;exitDx=0;exitDy=0;" parent="1" source="Napzg55pDiGs9bYMl0CJ-9" target="Napzg55pDiGs9bYMl0CJ-17" edge="1">
          <mxGeometry relative="1" as="geometry" />
        </mxCell>
        <mxCell id="Napzg55pDiGs9bYMl0CJ-8" value="Transfers, Taxes" style="edgeLabel;html=1;align=center;verticalAlign=middle;resizable=0;points=[];" parent="Napzg55pDiGs9bYMl0CJ-7" vertex="1" connectable="0">
          <mxGeometry x="0.1893" y="-1" relative="1" as="geometry">
            <mxPoint x="19" y="1" as="offset" />
          </mxGeometry>
        </mxCell>
        <mxCell id="ZcxN_EbIlxWUu9gdfckH-3" style="edgeStyle=orthogonalEdgeStyle;rounded=0;orthogonalLoop=1;jettySize=auto;html=1;endArrow=none;endFill=0;startArrow=none;startFill=0;" edge="1" parent="1" source="Napzg55pDiGs9bYMl0CJ-9" target="ZcxN_EbIlxWUu9gdfckH-2">
          <mxGeometry relative="1" as="geometry">
            <Array as="points">
              <mxPoint x="390" y="270" />
              <mxPoint x="390" y="270" />
            </Array>
          </mxGeometry>
        </mxCell>
        <mxCell id="ZcxN_EbIlxWUu9gdfckH-4" value="Consumption" style="edgeLabel;html=1;align=center;verticalAlign=middle;resizable=0;points=[];" vertex="1" connectable="0" parent="ZcxN_EbIlxWUu9gdfckH-3">
          <mxGeometry x="0.0514" y="-1" relative="1" as="geometry">
            <mxPoint as="offset" />
          </mxGeometry>
        </mxCell>
        <mxCell id="Napzg55pDiGs9bYMl0CJ-9" value="Retired Households" style="rounded=1;whiteSpace=wrap;html=1;fillColor=#dae8fc;strokeColor=#6c8ebf;fontColor=#003366;fontStyle=1" parent="1" vertex="1">
          <mxGeometry x="330" y="190" width="120" height="60" as="geometry" />
        </mxCell>
        <mxCell id="Napzg55pDiGs9bYMl0CJ-10" value="Pension Funds" style="rounded=1;whiteSpace=wrap;html=1;fillColor=#d5e8d4;strokeColor=#82b366;fontColor=#006633;fontStyle=1" parent="1" vertex="1">
          <mxGeometry x="330" y="60" width="120" height="60" as="geometry" />
        </mxCell>
        <mxCell id="Napzg55pDiGs9bYMl0CJ-12" value="Banks" style="rounded=1;whiteSpace=wrap;html=1;fillColor=#d5e8d4;strokeColor=#82b366;fontColor=#006633;fontStyle=1" parent="1" vertex="1">
          <mxGeometry x="600" y="190" width="120" height="60" as="geometry" />
        </mxCell>
        <mxCell id="Napzg55pDiGs9bYMl0CJ-13" style="edgeStyle=orthogonalEdgeStyle;rounded=0;orthogonalLoop=1;jettySize=auto;html=1;entryX=1;entryY=0.25;entryDx=0;entryDy=0;endArrow=none;endFill=0;dashed=1;" parent="1" source="Napzg55pDiGs9bYMl0CJ-14" target="Napzg55pDiGs9bYMl0CJ-9" edge="1">
          <mxGeometry relative="1" as="geometry" />
        </mxCell>
        <mxCell id="ZcxN_EbIlxWUu9gdfckH-1" value="Wealth" style="edgeLabel;html=1;align=center;verticalAlign=middle;resizable=0;points=[];" vertex="1" connectable="0" parent="Napzg55pDiGs9bYMl0CJ-13">
          <mxGeometry x="0.0098" y="3" relative="1" as="geometry">
            <mxPoint as="offset" />
          </mxGeometry>
        </mxCell>
        <mxCell id="Napzg55pDiGs9bYMl0CJ-14" value="Housing Market" style="rounded=1;whiteSpace=wrap;html=1;fillColor=#fff2cc;strokeColor=#d6b656;fontColor=#666600;fontStyle=1" parent="1" vertex="1">
          <mxGeometry x="600" y="60" width="120" height="60" as="geometry" />
        </mxCell>
        <mxCell id="Napzg55pDiGs9bYMl0CJ-17" value="Government" style="rounded=1;whiteSpace=wrap;html=1;fillColor=#d5e8d4;strokeColor=#82b366;fontColor=#006633;fontStyle=1" parent="1" vertex="1">
          <mxGeometry x="60" y="190" width="120" height="60" as="geometry" />
        </mxCell>
        <mxCell id="ZcxN_EbIlxWUu9gdfckH-2" value="Firms" style="rounded=1;whiteSpace=wrap;html=1;fillColor=#d5e8d4;strokeColor=#82b366;fontColor=#006633;fontStyle=1" vertex="1" parent="1">
          <mxGeometry x="330" y="320" width="120" height="60" as="geometry" />
        </mxCell>
      </root>
    </mxGraphModel>
  </diagram>
</mxfile>
